# xmcd
#
# Track frame offsets: 
#        150
#        12438
#        22182
#        31666
#        39547
#        52715
#        65883
#        81175
#        94390
#        104789
#        114126
#        127562
#        141086
#        151749
#        161853
#        173019
#        182055
#        193608
#        205984
#        218493
#        228961
#        239424
#        252215
#        266448
#        277249
#        287652
#        297786
#        310058
#        319724
#        332963
#
# Disc length: 4595 seconds
#
# Revision: 0
# Processed by: cddbd v1.5.2PL0 Copyright (c) Steve Scherf et al.
# Submitted via: ExactAudioCopyFreeDBPlugin 1.0
#
DISCID=ac11f11e
DTITLE=Various Artist - Starday Custom Series # 500 - 675 [CD1]
DYEAR=2017
DGENRE=Country
TTITLE0=Cotton Henry and The Oklahoma Hillbillies - Streamliner Boogie
TTITLE1=Cotton Henry and The Oklahoma Hillbillies - Patent On My Gal
TTITLE2=Hoyt Scoggins and The Kingsmen Quartet - Jesus Still Heals
TTITLE3=Hoyt Scoggins and The Kingsmen Quartet - The Pathway Is Not Crow
TTITLE3=ded
TTITLE4=Big Bob Dougherty and His Orchestra - Whale
TTITLE5=Big Bob Dougherty and His Orchestra - Okey Pretty Baby
TTITLE6=Jack Hammons - Tomorrows Goodbyes
TTITLE7=Jack Hammons - Substitute For Love
TTITLE8=Buddy Livingston and His All-Girl Band - Back When She Was Young
TTITLE9=Buddy Livingston and His All-Girl Band - Write Me Right Away
TTITLE10=Billie and Gordon Hamrick - He Is My Guide
TTITLE11=Billie and Gordon Hamrick - He's Gonna Take His Children Out
TTITLE12=Al Warwick - Rag Doll
TTITLE13=Al Warwick - You Are The Only One
TTITLE14=Early Graham and His Musical Drifters - I Wish You'd Fooling Ag
TTITLE14=ain
TTITLE15=Early Graham and His Musical Drifters - Stop Fooling My Heart
TTITLE16=Jerry Hopkins and The Southern Playboys - Cuddle Up To Me
TTITLE17=Jerry Hopkins and The Southern Playboys - My Everlasting Love
TTITLE18=Ray Mayo - Mended Heart
TTITLE19=Ray Mayo - Who Winds Your Clock
TTITLE20=Jerry and The String Trio - Lead Me To The Promise Land
TTITLE21=Jerry and The String Trio - Judgement Day
TTITLE22=Joe Bryant and The Mississippi Woodchoppers - Pulpwood Blues
TTITLE23=Joe Bryant and The Mississippi Woodchoppers - A Man Ain't Nothi
TTITLE23=n' But A Woman's Slave
TTITLE24=Buddy Livingston and His All Girl Band - Back When She Was Youn
TTITLE24=g
TTITLE25=Buddy Livingston and His All Girl Band - I Can't Love No One (L
TTITLE25=ike I Love You)
TTITLE26=Beamon Forse - The Rest Of My Life
TTITLE27=Beamon Forse - You Better Go Now
TTITLE28=Al Meyer and His Pals - You're The Same Old Moon
TTITLE29=Al Meyer and His Pals - Somebody Cares
EXTD=
EXTT0=
EXTT1=
EXTT2=
EXTT3=
EXTT4=
EXTT5=
EXTT6=
EXTT7=
EXTT8=
EXTT9=
EXTT10=
EXTT11=
EXTT12=
EXTT13=
EXTT14=
EXTT15=
EXTT16=
EXTT17=
EXTT18=
EXTT19=
EXTT20=
EXTT21=
EXTT22=
EXTT23=
EXTT24=
EXTT25=
EXTT26=
EXTT27=
EXTT28=
EXTT29=
PLAYORDER=
